<svg width="240" height="20" viewBox="0 0 240 20" fill="none" xmlns="http://www.w3.org/2000/svg">
<g clip-path="url(#clip0_2073_249)">
<path d="M18.0169 9.8162C17.5842 9.73453 17.1842 9.57937 16.8168 9.35887C12.8738 6.91706 9.43697 4.65491 6.51442 2.57242C5.77154 2.04159 5.71439 1.4291 6.32666 0.734939C6.50626 0.530774 6.72667 0.457275 6.99607 0.522608C8.6451 0.922771 10.1554 1.6006 11.5268 2.55609C14.3106 4.50791 17.2495 6.17389 20.3271 7.57038C21.5925 8.14205 22.9721 8.42788 24.4824 8.42788C89.5948 8.23188 149.058 8.56671 219.852 8.13388C221.012 8.13388 222.367 8.46054 223.657 8.44421C224.073 8.44421 224.122 8.29721 223.803 8.01955C221.991 6.45156 219.207 4.81007 219.526 2.10693C219.558 1.80476 219.714 1.60877 219.999 1.51077C220.718 1.24943 221.305 1.44543 221.763 2.09059C223.24 4.18941 225.142 5.7574 227.453 6.79456C228.865 7.43155 229.395 8.37888 230.645 9.1057C230.791 9.18737 230.979 9.18737 231.118 9.08937L231.298 8.96687C231.51 8.81987 231.518 8.51771 231.314 8.37071L222.652 1.87826C222.465 1.73126 222.359 1.53527 222.334 1.29843C222.293 0.849272 222.456 0.481775 222.807 0.20411C223.028 0.0326117 223.281 -0.0245545 223.55 0.0162784C224.718 0.187777 225.73 0.563441 226.587 1.12694C230.106 3.47075 234.114 6.0024 238.604 8.71371C239.126 9.0322 239.551 9.4242 239.877 9.90603C240.114 10.2572 240.008 10.739 239.649 10.9677C235.551 13.5402 231.632 15.9901 227.893 18.3176C226.938 18.9138 225.828 19.4283 224.571 19.8448C223.51 20.2041 222.856 19.9509 222.62 19.0853C222.538 18.8158 222.636 18.5218 222.856 18.3421L230.857 11.9313C231.061 11.768 231.036 11.6455 230.783 11.572C230.302 11.4332 229.836 11.5312 229.387 11.8742C226.62 14.022 223.999 15.9493 221.542 17.6725C220.889 18.1298 220.334 18.0236 219.885 17.3621C219.583 16.913 219.64 16.3168 220.016 15.9248L224.865 10.984C225.11 10.7309 225.061 10.641 224.718 10.7064C223.64 10.9105 222.571 11.0167 221.518 11.0085C184.031 10.8207 146.544 10.8044 109.057 10.9432C103.905 10.9677 98.4686 10.9595 92.7378 10.9187C71.0146 10.7717 47.8219 10.788 23.1762 10.9595C21.9843 10.9677 20.9149 11.1882 19.9679 11.6129C18.9557 12.0702 18.025 12.5847 17.176 13.1645C14.5065 14.9938 11.7881 16.864 9.0043 18.7668C7.9512 19.4936 6.93076 19.8203 5.92664 19.7468C5.46949 19.7141 5.20825 19.2078 5.45316 18.8158C5.82052 18.2115 6.30217 17.648 6.88178 17.1335C9.43697 14.855 12.1146 12.8868 14.9147 11.2372C15.576 10.8452 15.527 10.6329 14.7514 10.6084C13.1759 10.5512 12.1228 10.9269 10.8901 11.9722C7.87773 14.5283 4.75109 16.7088 1.52649 18.5136C0.865248 18.8811 0.383599 18.726 0.0815477 18.04C-0.0245784 17.8031 -0.0245784 17.5581 0.0815477 17.3131C0.367272 16.6761 0.775449 16.1208 1.31424 15.6472C3.52656 13.7117 5.86134 11.9477 8.3104 10.3552C8.44918 10.2654 8.45734 10.0612 8.32673 9.9632L0.68565 4.15674C0.0652206 3.69125 -0.0817232 3.09509 0.236655 2.38459C0.2938 2.26209 0.383599 2.16409 0.497888 2.09059C1.19179 1.61693 1.87753 1.63326 2.5551 2.13959C6.41646 5.03057 9.99209 7.29272 13.282 8.91787C14.629 9.58753 16.2045 9.93053 18.0005 9.94686C18.523 9.95503 18.5312 9.90603 18.0169 9.8162Z" fill="black"/>
</g>
<defs>
<clipPath id="clip0_2073_249">
<rect width="240" height="20" fill="white"/>
</clipPath>
</defs>
</svg>
