<svg width="255" height="40" viewBox="0 0 255 40" fill="none" xmlns="http://www.w3.org/2000/svg">
<g clip-path="url(#clip0_2073_221)">
<path d="M127.86 2.94794C127.662 2.56263 127.104 2.58951 126.951 2.99274C125.521 6.90851 123.587 10.654 121.168 14.2472C115.339 22.8763 107.37 30.878 97.9073 35.8332C88.139 40.9497 78.038 41.353 67.5951 37.0429C65.1935 36.0573 61.7396 34.0232 57.2242 30.9408C53.8332 28.6289 50.4512 26.3171 47.0602 23.9963C42.1311 20.6182 36.2216 18.5931 29.3226 17.9211C27.3888 17.7329 25.1311 17.8404 22.5406 18.2436C20.229 18.6021 17.9173 18.9336 15.6147 19.2472C15.3538 19.2831 15.2009 19.4264 15.156 19.6773C15.138 19.7669 15.138 19.8565 15.156 19.9461C15.1829 20.1522 15.2999 20.2866 15.4978 20.3494C16.4062 20.663 17.0179 21.1737 17.3327 21.8816C17.8184 22.9748 16.703 24.1039 15.5967 23.62C13.6808 22.7866 12.2866 20.4927 14.2655 18.6917C15.3718 17.6881 17.2247 16.8547 19.8152 16.1827C36.0237 12.0071 48.0316 21.2454 60.4443 29.7311C65.3464 33.0823 71.8586 36.0931 77.7861 36.7203C83.8755 37.3655 89.5872 36.4694 94.93 34.0232C105.562 29.1666 114.754 20.0268 120.781 9.21138C122.481 6.15582 124.253 3.31532 126.088 0.689873C126.501 0.0984752 127.266 -0.152421 127.95 0.0895147C130.585 0.985572 133.877 7.88521 135.334 10.3583C140.65 19.4264 148.053 27.249 156.805 32.2311C168.921 39.1307 180.794 38.6648 192.424 30.8422C197.092 27.697 201.652 24.6415 206.123 21.6755C215.477 15.4569 226.828 12.7598 237.676 16.6307C240.779 17.7418 242.956 19.9999 240.159 22.9211C239.691 23.4049 238.962 23.5393 238.351 23.2526L237.649 22.9211C237.118 22.6702 237.082 21.9354 237.586 21.6307C239.691 20.3583 240.159 19.5698 238.998 19.2562C236.426 18.5662 233.979 18.1003 231.659 17.8583C222.61 16.9175 214.767 18.7723 208.119 23.4408C204.692 25.8422 201.23 28.2616 197.722 30.7078C193.17 33.8888 189.545 36.0304 186.838 37.1415C178.095 40.7168 169.361 40.8422 160.627 37.4999C155.923 35.7078 150.94 32.4999 145.66 27.8852C137.916 21.12 132.636 12.482 127.86 2.94794Z" fill="black"/>
<path d="M90.8645 19.0592C87.1137 17.2223 83.147 14.5431 78.9645 11.0127C78.3708 10.5109 78.2179 9.90154 78.4968 9.1847C78.5507 9.05029 78.6317 8.9338 78.7486 8.83523C79.4232 8.21695 80.1158 8.19903 80.8264 8.76355C86.7899 13.5127 93.2481 17.3926 100.183 20.4123C100.462 20.5377 100.795 20.5198 101.055 20.3585C105.355 17.8227 109.169 14.2653 112.497 9.68649C113.054 8.90692 113.801 8.57538 114.736 8.69186C115.105 8.73667 115.357 9.0234 115.474 9.54312C115.528 9.80297 115.474 10.0808 115.312 10.2958C109.546 18.2618 101.73 24.4087 91.8629 28.7367C87.4285 30.6811 79.837 32.1686 75.2497 30.2062C75.1327 30.1614 75.0518 30.0987 75.0068 30.018C74.8899 29.8209 74.9259 29.6238 75.1148 29.4266C75.1957 29.3549 75.3036 29.3101 75.4116 29.3012C83.165 29.0234 90.3878 26.7474 97.0708 22.4553C97.2777 22.3209 97.2777 22.0162 97.0618 21.8908C95.2089 20.7797 93.7158 21.0664 91.638 21.9356C76.2211 28.3962 63.6195 22.5001 50.1634 14.803C46.2687 12.5718 40.7999 10.8155 33.7481 9.51624C33.5232 9.48039 33.3253 9.32806 33.2264 9.12197C32.9655 8.55746 33.1724 8.09151 33.865 7.7062C34.0629 7.59867 34.2968 7.54491 34.5216 7.57179C41.8523 8.44097 48.8502 10.7528 55.5333 14.4983C63.4126 18.9248 71.5528 22.76 80.3767 21.8012C83.4618 21.4696 86.9428 20.7349 90.8195 19.6148C91.3232 19.4714 91.3412 19.2833 90.8645 19.0592Z" fill="black"/>
<path d="M164.846 19.0592C164.657 19.1667 164.675 19.4445 164.873 19.5252C177.546 24.7133 187.791 20.8872 198.873 14.2922C204.189 11.1291 209.936 8.98753 216.098 7.86746C216.44 7.80473 216.763 8.02875 216.826 8.36925L216.88 8.69183C216.997 9.33699 216.736 9.7671 216.107 9.97319C210.206 11.8908 204.863 14.1936 200.069 16.8728C195.518 19.4176 191.344 21.4427 187.558 22.9571C181.657 25.2958 175.442 25.5646 168.92 23.7635C165.359 22.7868 162.165 20.6363 158.433 22.1058C158.1 22.2402 158.073 22.6882 158.379 22.8675C165.386 26.9266 172.401 29.5431 180.659 29.2026C181.099 29.1847 181.396 29.3997 181.549 29.8388C181.693 30.251 181.441 30.69 181.018 30.7796C175.217 31.9804 169.856 31.5861 164.945 29.5879C157.974 26.7474 151.597 22.5628 145.813 17.0252C143.51 14.8298 141.604 12.5001 140.092 10.0449C139.859 9.66853 140.092 9.18466 140.524 9.12194C141.631 8.96065 142.566 9.31907 143.349 10.1972C146.847 14.1399 150.436 18.0108 155.24 20.6363C155.5 20.7796 155.761 20.7707 156.013 20.6184C159.422 18.5126 163.083 16.7563 166.15 14.4893C168.606 12.6703 171.025 10.7886 173.409 8.84416C174.101 8.27965 174.812 8.2438 175.559 8.73663L175.873 8.94273C176.323 9.23843 176.386 9.87463 176.017 10.2599C172.68 13.7994 168.956 16.7295 164.846 19.0592Z" fill="black"/>
<path d="M125.548 19.0859C124.118 21.7383 120.61 30.2598 116.49 29.525C116.005 29.4354 115.789 28.853 116.112 28.4676C120.295 23.4408 123.857 18.0823 126.816 12.3924C126.996 12.0429 127.464 11.9712 127.743 12.249C128.642 13.154 129.407 14.1576 130.036 15.2777C132.591 19.8297 135.352 24.059 138.32 27.9748C138.491 28.1988 138.527 28.4497 138.446 28.7096C138.293 29.1845 137.961 29.4802 137.466 29.5877C137.169 29.6504 136.89 29.6056 136.629 29.4354C133.454 27.3655 131.601 23.0375 129.91 19.8117C129.416 18.853 129.074 18.9067 128.885 19.973C128.786 20.5196 128.804 21.1827 128.939 21.9623C129.47 25.1164 129.712 28.2526 129.685 31.3798C129.676 32.1863 129.281 32.6791 128.498 32.8583L126.87 33.2347C126.115 33.4049 125.728 33.1092 125.719 32.3386C125.629 28.0286 125.809 23.6827 126.258 19.301C126.384 18.0465 126.151 17.9748 125.548 19.0859Z" fill="black"/>
<path d="M247.112 32.6881C249.198 31.5949 252.077 29.3637 251.771 26.8727C251.708 26.3261 251.672 25.8512 251.672 25.4479C251.681 24.534 252.652 23.9515 253.471 24.3727C256.106 25.7436 254.802 28.7454 253.525 30.5913C251.321 33.7723 248.191 35.8332 244.116 36.7831C237.784 38.2616 232.333 36.801 227.764 32.4013C227.062 31.7293 226.801 31.0035 226.981 30.2419C227.071 29.8655 227.512 29.6863 227.845 29.9013C234.546 34.1666 239.385 36.7203 247.112 32.6881Z" fill="black"/>
<path d="M3.39995 27.1146C3.96662 29.7938 6.51212 31.9891 8.9227 33.0913C14.9941 35.878 20.4359 35.0447 25.2481 30.6003C25.6259 30.2508 26.1386 30.0895 26.6423 30.1522C27.4428 30.2508 27.6767 30.6451 27.3439 31.335C25.7788 34.4891 22.9814 36.4067 18.9518 37.0877C11.1534 38.4049 2.41953 35.2687 0.0809035 27.1952C-0.143964 26.4336 0.0809035 25.6182 0.66556 25.0895C0.980374 24.7938 1.34016 24.5608 1.74492 24.3906C2.31159 24.1486 2.95022 24.4981 3.04016 25.1074C3.1391 25.7615 3.25604 26.4336 3.39995 27.1146Z" fill="black"/>
</g>
<defs>
<clipPath id="clip0_2073_221">
<rect width="255" height="40" fill="white"/>
</clipPath>
</defs>
</svg>
