<svg width="126" height="138" viewBox="0 0 126 138" fill="none" xmlns="http://www.w3.org/2000/svg">
<path d="M20.3 102.05C19.3 101.35 18.225 100.675 17.325 99.95C14.75 97.925 12.3 95.775 9.925 93.525C9.225 92.85 8.55 92.15 7.95 91.425C7.825 91.275 7.75 91.075 7.725 90.85L7.65 85.625C7.65 85.225 7.75 85.175 8 85.5C14.925 94.85 24.825 100.625 34.95 105.925C40.35 108.75 45.75 111.6 51.125 114.475C56.225 117.2 61.525 119.425 67 121.2C76.975 124.425 87.125 124.95 97.4 122.75C103.3 121.5 108.475 119.375 113.1 115.9C113.225 115.8 113.275 115.825 113.25 116C113.25 116.025 113.225 116.075 113.15 116.175C110.8 119.55 107.95 122.525 104.6 125.075C95.2 132.225 84.1 136.45 72.325 137.525C63.55 138.325 54.825 136.8 46.675 133.575C42.375 131.875 38.825 130.1 34.125 127.625C33.625 127.375 32.4 126.85 30.45 126.075C24.95 123.925 17.075 123.075 12.35 127.6C12.2 127.75 12.225 127.825 12.45 127.8C16.075 127.475 19.225 127.125 23.125 127.7C26.325 128.175 29.325 129.2 32.05 130.825C32.3 130.975 32.275 131.025 32 131.025C24.65 131 17.25 131 9.8 131.025C8.85 131.025 7.675 131.025 7.675 129.75C7.65 124.2 7.65 118.675 7.675 113.125C7.675 112.5 7.3 110.7 8.175 110.625C12.675 110.275 16.75 110.675 20.95 112.25C21.225 112.35 21.5 112.475 21.75 112.625C21.8 112.65 21.825 112.725 21.775 112.775C21.75 112.825 21.675 112.825 21.6 112.825C18.175 112.525 15.075 112.65 11.925 113.85C11.75 113.925 11.625 114.1 11.625 114.275L11.6 115.15C11.6 115.35 11.675 115.4 11.85 115.35C12.75 115 13.65 114.8 14.55 114.7C20.6 114.1 27 115.875 32.6 118.2C37.1 120.05 41.375 122.325 45.725 124.45C48.85 125.975 52.05 127.275 55.35 128.35C60.55 130.025 65.725 130.825 70.9 130.725C74.175 130.65 78.125 129.95 81.25 128.55C81.525 128.425 81.5 128.375 81.225 128.4C76.875 128.6 72.7 128.675 68.4 127.9C64.375 127.175 60.675 126.125 57.325 124.775C52.125 122.7 46.55 119.8 41.775 117.225C35.225 113.675 28.125 110.6 21.025 108.55C16.85 107.35 12.075 106.5 7.8 106.9C7.725 106.9 7.7 106.875 7.7 106.8L7.675 96.25C7.675 96.175 7.7 96.15 7.775 96.175C8.175 96.275 8.45 96.4 8.6 96.5C12.125 98.95 16 100.85 20.25 102.175C20.525 102.25 20.525 102.2 20.3 102.05Z" fill="black"/>
<path d="M87.55 119.375C87.5 119.25 87.325 119.15 87.025 119.075C83.025 117.85 79.2 116.225 75.575 114.175C69.225 110.6 63.975 105.525 58.525 100.775C52.625 95.65 45.8 92.925 38.025 92.6C35.95 92.525 33.55 92.725 31.325 92.875C30 92.975 28.775 91.775 27.775 90.725C16.75 79.15 14.175 61.3 18.2 46.35C21.25 35 27.05 25.075 35.6 16.6C37.775 14.45 39.65 12.65 41.2 11.2C41.75 10.7 42.8 9.52499 42.525 8.79999C42.2 7.89999 41.525 7.97499 40.6 7.92499C39.1 7.87499 37.7 7.92499 36.425 8.04999C32.1 8.47499 27.725 10.975 24.5 13.85C18.425 19.275 14.25 26 12 33.975C11.775 34.75 11.575 35.825 11.375 37.175C11.375 37.25 11.425 37.3 11.475 37.3H11.525C11.625 37.3 11.675 37.25 11.7 37.175C12.575 34.2 13.4 31.9 14.2 30.275C17.1 24.375 21.45 19.225 26.575 15.275C27.675 14.425 28.975 13.65 30.45 12.975C30.475 12.975 30.475 12.975 30.5 12.975C30.525 12.975 30.525 13 30.55 13C30.575 13.025 30.575 13.05 30.525 13.075C23.85 18.325 18.5 24.75 15.25 32.7C15.225 32.75 15.25 32.8 15.3 32.825L15.375 32.85C15.475 32.875 15.55 32.85 15.6 32.75C18.65 27.425 22.65 22.9 27.6 19.15C27.8 19 28 18.9 28.175 18.825C28.325 18.775 28.35 18.8 28.225 18.925C20.475 26.95 15 36.95 12.425 47.95C10.875 54.675 10.65 61.45 11.75 68.325C12.275 71.6 12.85 74.05 13.775 77.275C13.775 77.3 13.775 77.3 13.75 77.325C13.725 77.35 13.725 77.35 13.7 77.35C13.675 77.35 13.675 77.35 13.65 77.35C12.075 75.35 10.825 72.65 9.975 70.25C5.925 58.7 5.45 45.975 9.05 34.2C9.775 31.85 10.35 30.125 10.8 29C14.075 20.775 19.3 13.125 26.725 8.12499C26.85 8.02499 26.875 7.94999 26.775 7.84999C26.75 7.82499 26.7 7.79999 26.65 7.79999C20.875 7.82499 15.125 7.82499 9.425 7.82499C8.55 7.82499 7.7 8.02499 7.675 8.99999C7.625 11.375 7.65 16.05 7.75 23C7.75 23.075 7.85 23.125 7.9 23.075L7.975 23C8 22.975 8.05 23 8.05 23.025C8.05 23.075 8.05 23.125 8.025 23.175C6.85 25.75 5.9 27.575 4.575 30.9C1.175 39.4 -0.025003 48.575 1.225 57.575C3.625 75.1 15.825 89.875 30.9 98.45C35 100.775 39.125 102.9 43.275 104.825C43.675 105 43.725 104.95 43.425 104.625C41.925 103 40.525 101.275 39.15 99.45C38.875 99.1 38.675 98.7 38.5 98.3C38.475 98.225 38.5 98.175 38.575 98.175C43.95 97.825 49.85 100.575 53.975 103.85C56.8 106.075 59.475 108.575 62.075 111.025C62.175 111.125 62.175 111.15 62.05 111.075C58.45 109.15 54.925 107.175 51.525 105.15C49.4 103.9 47.725 103.3 45.7 102.575C45.425 102.475 45.375 102.55 45.55 102.775C46.225 103.7 46.975 104.575 47.825 105.4C51.775 109.3 56.45 112.075 61.575 114.2C67.45 116.65 73.425 118.225 79.65 119.175C82.175 119.575 84.725 119.725 87.35 119.675C87.575 119.675 87.65 119.575 87.55 119.375ZM11.7 11.525C11.7 11.475 11.725 11.45 11.775 11.45L15.725 11.375C15.8 11.375 15.825 11.45 15.775 11.5L11.8 15.525C11.75 15.575 11.675 15.55 11.675 15.475L11.7 11.525Z" fill="black"/>
<path d="M122.275 50.95C122.225 50.85 122.175 50.825 122.1 50.825C122.025 50.85 121.975 50.9 121.975 50.975C122.15 57 120.65 62.475 117.525 67.425C113.975 73.025 108.45 76.8 102.075 78.55C90.2 81.825 77.175 78.9 66.35 73.125C60.675 70.1 55.45 65.975 51.675 60.75C50.575 59.225 49.125 56.825 48.975 54.975C48.95 54.8 49.025 54.775 49.15 54.9C51.375 56.875 53.8 59.225 55.9 60.875C62.9 66.4 70.725 69.275 79.625 70.825C87.5 72.2 95.3 72.225 102.875 70.1C109.3 68.3 114.4 64.05 116.6 57.65C120.125 47.4 115.1 35.85 107.45 28.925C99.125 21.375 87.9 17.975 76.725 19.05C68.1 19.9 59.525 23 53.3 29.2C53.225 29.275 53.25 29.4 53.35 29.425C53.425 29.45 53.525 29.425 53.675 29.35C58.55 26.625 63.675 24.6 69.075 23.225C80.125 20.425 92.825 21.2 101.925 28.75C102.7 29.4 103.475 30.05 104.225 30.7C104.25 30.725 104.25 30.75 104.225 30.775C104.2 30.8 104.175 30.8 104.15 30.775C97.075 25.6 87.325 23.575 78.725 24.3C65.375 25.45 52.525 32.25 43.95 42.375C39.95 47.075 37.575 52.725 38.025 58.975C38.4 64.275 40.95 69.425 44.2 73.55C44.275 73.65 44.25 73.675 44.15 73.625C34.8 68.85 33.175 56.225 36.85 47.425C38.775 42.825 41.7 38.7 45.275 35.15C46.4 34.025 47.55 32.875 48.7 31.775C49.125 31.375 49.95 30.475 49.775 29.825C49.575 29.025 48.225 29.325 47.75 29.525C42.425 31.625 38.2 36.15 34.5 40.35C34.425 40.425 34.4 40.425 34.45 40.325C34.575 39.95 34.7 39.65 34.8 39.45C39.425 29.825 48.725 23.175 58.45 18.775C69.2 13.925 81 12.225 92.55 15.15C101.975 17.525 110.275 22.925 116.15 30.7C116.25 30.825 116.3 30.8 116.3 30.65C116.275 23.7 116.275 16.7 116.3 9.675C116.3 8.775 116.1 7.9 115.075 7.875C112.5 7.825 109.975 7.85 107.5 7.9C107.2 7.9 107.025 8.25 107.2 8.5C107.775 9.35 108.475 10.1 109.25 10.75C110.1 11.45 111.125 11.375 112.175 11.425C112.25 11.425 112.275 11.475 112.275 11.525L112.325 17.85C112.325 18 112.275 18 112.2 17.9C106.1 10.725 98.425 5.37499 89.25 2.54999C76.4 -1.4 62.5 -0.250004 50.8 6.625C48.45 8 46.35 9.6 44.725 11.75C44.65 11.85 44.6 11.95 44.625 12.075C44.625 12.125 44.7 12.175 44.75 12.125C49.825 8.8 55.575 6.24999 61.575 5.47499C62.1 5.39999 62.125 5.475 61.625 5.7C60.625 6.15 59.5 6.65 58.25 7.2C53.925 9.1 49.95 11.55 46.175 14.35C31.85 25.025 22.025 41.7 21.725 59.725C21.575 68.95 24.025 77.35 29.05 84.9C29.825 86.075 30.8 87.25 31.95 88.425C32.5 88.975 33.025 89.15 33.75 89.1C34.65 89.025 35.575 88.975 36.475 88.925C45.825 88.525 55.1 91.875 62.45 97.525C65.775 100.075 67.95 101.75 69 102.55C74.7 106.8 80.75 110.025 87.5 111.425C95.85 113.15 104.55 111.65 111.85 107.2C112.05 107.075 112.1 107.125 111.975 107.325C111.8 107.6 111.55 107.9 111.225 108.2C102.375 116.45 88.275 115.25 77.925 110.875C76.175 110.125 74.425 109.375 72.675 108.575C72.65 108.575 72.65 108.575 72.65 108.575L72.625 108.675C72.625 108.7 72.625 108.725 72.65 108.725C73.075 109.15 73.525 109.525 74.025 109.85C85.925 117.975 102.425 119.675 114.65 111.125C115.125 110.8 115.55 110.425 115.95 110C116.4 109.525 116.35 109.075 116.35 108.475C116.35 104.35 116.35 100.2 116.35 96.05C116.35 95.975 116.275 95.95 116.225 95.975C115.95 96.075 115.675 96.25 115.425 96.45C109 101.7 100.575 104.175 92.325 103.75C86.05 103.45 79.95 101.725 74.25 99.125C71.65 97.95 68.725 96.525 65.5 94.85C59.5 91.75 53.175 89.325 46.925 86.95C46.65 86.85 46.675 86.8 46.95 86.8C54.325 86.65 61.3 88.375 68.125 91.125C76.125 94.35 83.25 97.45 91.65 97.975C103.775 98.725 116.55 93.35 122.225 81.975C124.425 77.55 125.7 72.65 125.825 67.7C125.875 62.1 124.75 56 122.275 50.95ZM73 61.75C66.725 61.35 60.7 58.475 56.275 54.075C54.95 52.775 53.875 51.575 52.975 50.075C52.925 50 52.95 49.9 53.025 49.875L56.175 48.3C56.25 48.25 56.35 48.3 56.4 48.375C57.025 49.6 57.8 50.75 58.7 51.825C58.775 51.9 58.825 51.9 58.875 51.775C58.875 51.75 58.875 51.725 58.875 51.7C58.275 50.425 57.95 49.05 57.925 47.625C57.925 47.475 58.025 47.35 58.15 47.3L60.65 46.5C60.725 46.475 60.8 46.525 60.8 46.6C60.725 50.575 62.875 54.3 66.3 56.225C69.325 57.925 72.45 58.1 75.675 56.8C77.275 56.15 78.625 55.15 79.7 53.8C81.725 51.25 82.25 48.45 82.025 45.4C82.025 45.325 82.075 45.275 82.15 45.3L85.1 45.95C85.225 45.975 85.3 46.075 85.3 46.2C85.525 49.3 84.625 52.025 82.625 54.35C82.6 54.4 82.6 54.45 82.65 54.475L82.7 54.5C82.775 54.525 82.85 54.5 82.9 54.45C85.225 52.5 86.725 50.05 87.45 47.125C87.475 47.05 87.525 47.025 87.6 47.05L89.6 47.875C89.675 47.9 89.7 47.95 89.7 48.05C89.6 50.25 88.3 52.45 86.875 54.025C86.825 54.075 86.85 54.15 86.925 54.15H86.975C87.1 54.15 87.2 54.125 87.3 54.05C88.725 52.775 89.875 51.275 90.75 49.6C90.875 49.35 91.075 49.275 91.35 49.4L91.675 49.55C92 49.675 92.1 49.925 92 50.25C91.15 52.975 89.75 54.775 87.85 56.65C87.8 56.675 87.825 56.75 87.85 56.775L87.9 56.825C87.975 56.875 88.05 56.875 88.125 56.825C90.325 55.3 92.325 53.55 94.125 51.55C94.15 51.5 94.225 51.55 94.225 51.6C94.225 51.675 94.2 51.775 94.15 51.875C92.375 56.3 87.675 59.45 83.25 60.775C80 61.675 76.375 61.95 73 61.75ZM66.425 46.025C66.525 45.8 66.6 45.825 66.625 46.05C66.95 48.075 67.575 49.35 69.35 50.475C70.925 51.475 72.55 51.4 74.225 50.275C76.05 49.05 76.375 47.125 76.525 45.075C76.525 44.925 76.575 44.925 76.65 45.05C78.125 47.65 77.375 50.8 74.775 52.4C70.6 55 64.1 51.175 66.425 46.025ZM49.725 44.75C60.975 34.075 79.175 29.8 93.8 35.25C99.8 37.5 105.35 42.2 107.3 48.425C110.05 57.125 104.075 64.175 96.125 66.55C92.675 67.575 89.15 67.85 85.575 67.35C85.55 67.35 85.55 67.35 85.525 67.325C85.5 67.325 85.5 67.3 85.475 67.3C85.475 67.275 85.475 67.275 85.475 67.275C85.5 67.275 85.5 67.275 85.525 67.275C92 66.15 101.1 64.675 103.1 57.025C104.425 52.025 101.975 47.525 98.225 44.3C94.575 41.15 89.95 39.2 85.3 38.2C73.75 35.7 61.875 38.25 51.65 43.825C50.975 44.2 50.35 44.525 49.775 44.825C49.55 44.95 49.525 44.925 49.725 44.75ZM44.85 21.375C58.2 9.05 78.8 3.89999 95.5 12.6C95.525 12.625 95.55 12.65 95.525 12.675L95.5 12.725C95.5 12.75 95.475 12.75 95.45 12.75C94.025 12.25 92.375 11.825 90.475 11.5C85.8 10.675 81.2 10.225 76.55 10.45C66.325 10.95 56.5 14.6 47.75 19.775C46.725 20.4 45.775 20.95 44.925 21.475C44.6 21.65 44.575 21.625 44.85 21.375ZM86.525 82.8C86.85 82.85 87.225 82.9 87.7 82.925C91.15 83.225 94.625 83.25 98.075 83C98.85 82.95 99.525 82.9 100.1 82.85C100.45 82.825 100.45 82.875 100.15 83C96.225 84.625 92.175 84.775 88.025 83.5C87.4 83.3 86.9 83.125 86.5 82.95C86.05 82.775 86.075 82.725 86.525 82.8ZM108.025 85.725C100.65 91.175 91.4 91.025 82.775 89.4C75.675 88.05 68.85 85.85 62.275 82.825C56.825 80.3 51.525 76.725 47.8 71.975C43.85 66.95 42.05 60.1 43.625 53.8C43.675 53.55 43.725 53.55 43.75 53.8C43.975 56.025 44.525 58.05 45.4 59.85C48.775 66.875 54.55 72.7 61 76.9C67.2 80.95 73.875 83.95 81.05 85.95C85.875 87.3 90.8 87.925 95.825 87.875C99.775 87.825 103.6 87.15 107.325 85.85C107.55 85.775 107.775 85.725 108.025 85.725C108.075 85.7 108.075 85.7 108.025 85.725Z" fill="black"/>
<path d="M116.3 117.725C116.3 117.625 116.2 117.575 116.125 117.625C115.975 117.725 115.85 117.95 115.75 118.075C113.425 121.05 110.85 123.775 108.025 126.275C106.275 127.825 104.35 129.2 102.5 130.65C102.375 130.75 102.35 130.825 102.375 130.925C102.4 130.975 102.45 131.025 102.525 131.025C106.65 131.025 110.75 131.025 114.85 131C115.625 131 116.25 130.6 116.275 129.8C116.3 125.825 116.3 121.8 116.3 117.725ZM112.2 127.725L110.025 127.675C109.95 127.675 109.925 127.6 109.975 127.55L112.15 125.5C112.2 125.45 112.275 125.5 112.275 125.55V127.65C112.275 127.675 112.25 127.725 112.2 127.725Z" fill="black"/>
<path d="M78.525 59.125C80.5 58.625 82.35 57.55 84.05 56.525C84.2 56.425 84.425 56.475 84.525 56.625L84.575 56.7C84.75 56.975 84.7 57.2 84.425 57.375C82.675 58.55 80.725 59.225 78.625 59.375C78.55 59.375 78.5 59.325 78.475 59.275L78.45 59.2C78.475 59.175 78.475 59.15 78.525 59.125Z" fill="black"/>
</svg>
