<svg width="228" height="228" viewBox="0 0 228 228"  xmlns="http://www.w3.org/2000/svg">
<path fill-rule="evenodd" clip-rule="evenodd" d="M187.274 139.243L186.965 139.114C167.184 130.921 151.462 138.16 141.472 146.088C146.365 133.605 147.568 122.372 147.785 119.861C149.304 116.803 151.385 114.943 154.141 114.181C161.509 112.137 171.099 118.506 171.192 118.57L173.773 120.303L188.963 82.7868L141.494 36.6396L103.817 40.9293C102.991 41.0579 102.177 41.211 101.362 41.369C94.0728 31.9428 84.8534 24.1957 74.1928 19.7204L113.891 10.3007L197.111 30.0423L197.919 80.5605C197.919 101.566 194.233 121.338 187.274 139.241V139.243ZM114.145 85.899C115.51 100.406 113.879 135.429 69.6768 148.197L46.9745 108.131C48.7578 89.9509 57.2052 73.8394 69.8429 62.4492L70.2745 63.0225C81.1485 77.5281 81.1696 92.9035 70.3299 106.316L68.7501 108.267L72.6717 111.411L74.2498 109.456C86.6661 94.0923 86.6856 76.5363 74.3052 60.0243L73.6961 59.2132C81.2799 53.318 90.0408 49.1194 99.3868 46.9012C107.352 57.9332 112.792 71.5252 114.145 85.899ZM153.317 55.5831C147.988 59.9217 141.355 65.322 142.805 89.0731C143.725 104.219 143 116.234 142.837 118.56L142.831 118.578L142.805 119.055C142.795 119.213 141.816 134.852 134.303 150.254C124.613 170.13 109.026 180.288 87.964 180.464L72.2109 152.67C104.673 142.826 122.2 117.811 119.153 85.4349C117.896 72.0806 112.746 57.9315 104.623 45.8785L139.689 41.8885L153.592 55.404C153.499 55.461 153.405 55.5131 153.317 55.5831ZM163.59 82.2917C165.893 82.3377 168.122 81.481 169.801 79.9049C171.48 78.3288 172.477 76.1583 172.576 73.8573L183.038 84.0278L171.366 112.855C167.409 110.736 159.714 107.438 152.81 109.352C151.149 109.806 149.585 110.562 148.197 111.583C148.355 106.074 148.392 98.0579 147.825 88.7685C146.532 67.5776 151.6 63.4508 156.501 59.4624C156.74 59.267 156.924 59.0341 157.071 58.7833L172.357 73.6424L154.911 73.3167C154.82 78.1812 158.706 82.1989 163.59 82.2901V82.2917ZM113.914 217.01C61.7929 192.916 30.7523 142.08 30.7523 80.5605V30.0276L64.8758 21.9303C76.5575 24.8536 87.451 32.332 96.0385 42.6018C66.4962 50.616 44.6766 76.665 41.8917 108.464L41.8217 109.238L85.0147 185.45L86.4592 185.471C86.7768 185.475 87.0813 185.476 87.3957 185.476C109.088 185.476 123.039 175.633 131.991 163.543L132.243 163.704L133.6 161.6C133.652 161.522 138.774 153.67 147.726 147.606C159.468 139.65 172.024 138.354 185.033 143.738L185.375 143.879C171.593 176.052 146.946 201.752 113.914 217.01ZM113.891 0L20.6926 22.116V80.5605C20.6926 146.952 54.777 201.731 111.865 227.09L113.914 228L115.962 227.09C173.58 201.495 207.977 146.72 207.977 80.4807L207.048 22.1013L113.889 0H113.891Z"/>
</svg>
