<svg width="228" height="228" viewBox="0 0 228 228" xmlns="http://www.w3.org/2000/svg">
<path fill-rule="evenodd" clip-rule="evenodd" d="M191.012 135.611C189.357 130.759 187.007 126.173 184.033 121.996C178.687 114.438 167.526 102.952 147.114 98.0433C157.094 95.4538 164.855 89.363 165.784 73.2434L165.995 69.584L162.58 70.7093C162.45 70.7484 148.763 74.4176 117.545 54.3161C109.891 49.3506 97.8087 45.5169 85.9804 48.8799C86.1056 48.2031 86.1694 47.5163 86.171 46.8279C86.171 40.6019 81.2136 35.5354 75.1227 35.5354C69.0286 35.5354 64.0729 40.6003 64.0729 46.8279C64.0729 51.8 67.2356 56.0229 71.6115 57.5244C66.4587 62.7358 62.371 69.8918 59.5455 78.8033C58.8455 81.0013 58.2847 83.2412 57.8664 85.5098L57.5032 86.4218C46.0576 115.173 53.624 131.115 59.1481 142.754C64.011 152.998 67.0222 159.4 57.1254 170.091C52.3863 163.728 48.165 155.869 44.6652 145.723C37.8724 126.027 37.7275 56.7085 37.848 35.6494C45.8329 36.6494 60.3321 36.0403 77.3197 24.155C89.9818 15.2955 103.584 10.4147 116.666 10.0304C129.75 10.4147 143.353 15.2972 156.014 24.155C173.003 36.0403 187.501 36.651 195.487 35.6494C195.591 53.9464 195.494 108.649 191.012 135.611ZM142.376 196.757C138.417 198.995 134.408 201.274 130.44 203.778C136.75 186.621 134.349 167.424 128.258 156.509C123.547 148.062 114.757 141.163 102.144 135.989C100.555 133.11 94.7454 121.576 98.1149 112.678C99.8835 108.01 104.071 104.691 110.557 102.815C114.694 101.618 119.166 101.038 123.675 100.654V100.695H126.128C158.133 100.695 173.655 115.879 180.058 124.933C185.387 132.465 187.849 140.279 188.349 146.615C177.672 176.793 160.523 186.499 142.376 196.757ZM109.222 97.9895C101.17 100.318 95.8952 104.652 93.5386 110.868C90.5258 118.824 93.1413 127.911 95.545 133.636C81.4465 128.18 70.9976 119.772 65.8041 109.601C63.3286 104.746 62.1121 99.5301 62.0632 94.0223C63.0599 84.0099 67.1216 77.0819 74.1651 73.4567C83.7021 68.5433 95.6981 71.0725 101.164 74.4404C131.738 93.265 158.639 80.3798 159.768 79.8212L159.865 79.7739C156.279 93.4539 144.303 94.2438 129.629 95.1965C122.819 95.6362 115.778 96.0922 109.223 97.9895H109.222ZM85.3209 54.3519C88.6383 53.1305 92.0143 52.6126 95.3121 52.6126C102.83 52.6126 109.932 55.3144 114.925 58.5569C135.24 71.6376 148.706 75.1683 156.34 75.8637C152.496 77.3979 140.456 81.3765 125.162 78.5346C125.833 73.2597 122.319 68.343 117.143 67.444C113.075 66.7389 109.176 68.7241 107.168 72.1294C105.993 71.5019 104.836 70.8398 103.699 70.1442C96.1916 65.5223 82.5148 63.5452 71.9584 68.9798C70.4039 69.7832 68.9364 70.7448 67.5792 71.8493C71.8949 62.9899 77.8359 57.1107 85.3209 54.3519ZM75.1244 53.1061C71.7353 53.1061 68.9814 50.2887 68.9814 46.8279C68.9814 43.3672 71.7337 40.5498 75.1244 40.5498C78.5118 40.5498 81.2673 43.3672 81.2673 46.8279C81.2673 50.2903 78.5102 53.1061 75.1244 53.1061ZM90.9704 196.756C79.958 190.535 69.3153 184.512 60.2588 174.005C73.0186 160.497 68.6264 151.232 63.5648 140.567C59.1383 131.237 53.8292 120.039 57.8811 101.639C58.5923 105.214 59.7953 108.674 61.4558 111.919C67.9131 124.569 81.4546 134.658 99.5937 140.341C111.547 145.119 119.76 151.395 123.998 158.993C130.252 170.197 132.077 192.176 122.434 209.293C120.448 210.789 118.527 212.37 116.677 214.032C108.543 206.685 99.6279 201.648 90.9704 196.756ZM205.107 22.3619L198.622 24.7787C197.972 25.0181 182.494 30.5259 161.556 15.8786C147.298 5.90357 131.823 0.412029 116.809 0.00325714L116.658 0L116.528 0.00325714C101.514 0.412029 86.0391 5.90357 71.7793 15.8786C50.8456 30.5243 35.3612 25.0197 34.7521 24.7917L28.1889 22.2186L28.088 29.4006C28.0342 33.2587 26.8291 124.177 35.41 149.055C47.3035 183.543 67.089 194.72 86.2215 205.532C95.9603 211.035 105.162 216.232 113.207 224.456L116.676 228L120.145 224.455C128.191 216.232 137.388 211.035 147.125 205.534C166.253 194.722 186.032 183.545 197.925 149.055C206.504 124.177 205.303 33.2587 205.247 29.399L205.106 22.3619H205.107Z"/>
</svg>
