<svg width="228" height="228" viewBox="0 0 228 228" xmlns="http://www.w3.org/2000/svg">
<path fill-rule="evenodd" clip-rule="evenodd" d="M150.267 191.764C172.524 166.774 176.011 143.156 173.006 122.669C176.301 126.41 179.842 128.385 183.6 128.551C183.766 128.558 183.931 128.561 184.094 128.561C187.164 128.561 190.173 127.286 192.969 124.872C192.074 133.624 190.877 140.94 189.276 145.536C180.184 171.651 165.938 182.687 150.267 191.766V191.764ZM115.006 214.043C106.653 206.601 97.369 201.513 88.3532 196.573C75.2563 189.398 62.6625 182.494 52.5833 168.757C63.9589 174.909 75.5852 177.259 86.4413 177.255C103.364 177.255 118.41 171.591 127.683 165.907C151.366 151.392 162.233 125.265 162.274 100.952C163.091 103.243 163.857 105.553 164.57 107.878L164.526 107.899L164.694 108.285C172.56 134.284 173.679 166.054 133.934 200.878C127.442 204.602 120.985 208.714 115.006 214.043ZM107.051 50.4531L112.59 62.5257C112.156 62.3629 111.733 62.2131 111.334 62.0779C110.829 61.9085 110.329 61.7457 109.852 61.5339C103.131 58.5569 93.4344 59.2067 87.4103 60.0389L91.9931 52.3504C94.4881 51.7413 101.411 50.2219 107.051 50.4531ZM125.118 161.619C109.401 171.254 75.9745 180.815 46.4941 158.949C44.4046 154.968 42.4748 150.532 40.7371 145.537C36.6982 133.943 35.2048 105.165 34.7179 79.1241L52.6452 63.0436C49.9157 80.0231 50.9743 95.0304 55.8111 107.74C61.8466 123.592 72.0447 131.444 79.5394 135.24C95.6248 143.391 114.337 140.318 125.038 127.771C140.288 109.885 130.478 89.2001 126.289 80.3667C125.763 79.2593 125.328 78.3441 125.051 77.6503C124.21 75.5196 123.195 73.4618 122.016 71.4975L122.138 71.4389L113.85 53.3781L117.659 57.1335L125.718 48.7643L111.818 48.9435L111.435 48.108L115.822 39.4977L139.508 45.9697C144.189 56.2004 150.363 70.281 152.49 75.1553L152.867 76.2725C153.395 77.8262 153.985 79.4303 154.605 81.0621C162.395 107.818 153.934 143.954 125.117 161.618L125.118 161.619ZM34.6755 34.472C40.3478 34.8563 49.9076 35.1283 61.1089 33.9231C83.0034 31.5715 101.525 24.5165 115.006 13.4406C128.486 24.5165 147.008 31.5715 168.902 33.9231C177.682 34.8622 186.526 35.0458 195.337 34.472C195.556 48.5461 195.901 87.4168 193.717 116.381C190.626 121.104 187.111 123.69 183.815 123.543C179.197 123.34 174.309 117.876 170.055 108.158L169.261 106.338C167.072 99.1344 164.425 92.4703 162.035 86.4527C161.098 84.1128 160.181 81.7654 159.282 79.4108C158.864 77.9727 158.398 76.5491 157.885 75.1423C157.857 75.0609 157.576 74.4078 157.107 73.3281L156.748 72.2695L156.657 72.3021C154.035 66.2877 147.786 52.0915 143.515 42.7972L143.029 41.7387L113.252 33.6039L107.225 45.4371C99.5171 45.1391 90.1789 47.6325 89.7603 47.7497L88.7979 48.0103L77.3783 67.1786L83.0392 65.8871C83.1956 65.8545 99.1881 62.2815 107.87 66.1265C108.489 66.3985 109.127 66.6167 109.775 66.8333C110.639 67.1232 111.453 67.3984 112.124 67.8267C115.352 69.8885 118.234 73.9339 120.461 79.5231C120.767 80.2918 121.247 81.3097 121.829 82.536C125.916 91.1577 134.424 109.095 121.291 124.495C112.077 135.305 95.8186 137.881 81.7575 130.756C55.9072 117.664 52.9807 83.9805 58.8598 56.8241L60.4884 49.3099L34.6169 72.517C34.463 59.8357 34.4831 47.1528 34.6772 34.472H34.6755ZM205.006 23.2804L199.534 24.0198C199.021 24.0866 147.853 30.6481 118.361 3.13174L115.006 0L111.648 3.13174C82.2298 30.5797 30.9852 24.0882 30.4803 24.0198L25.0067 23.2804L24.8732 28.8697C24.782 32.7375 22.7072 123.908 31.3956 148.868C43.3982 183.345 63.8563 194.552 83.6402 205.391C93.7601 210.933 103.318 216.167 111.505 224.455L115.006 228L118.508 224.455C126.696 216.167 136.253 210.934 146.371 205.391C166.155 194.552 186.613 183.346 198.616 148.868C207.307 123.908 205.233 32.7375 205.14 28.8697L205.006 23.2804Z"/>
</svg>
