<svg width="228" height="228" viewBox="0 0 228 228" xmlns="http://www.w3.org/2000/svg">
<path fill-rule="evenodd" clip-rule="evenodd" d="M112.871 0.4104L116.233 3.1464C149.513 30.2149 191.883 31.0275 194.684 31.0487H194.828L200.112 31.0161L195.419 118.369C193.075 163.621 119.351 220.668 116.215 223.075L113.173 225.409L110.127 223.08C106.935 220.64 31.9884 162.821 29.9967 119.286L26.277 30.9298L31.5862 31.0503C32.0356 31.0341 78.9515 31.7018 109.684 3.34834L112.871 0.412029V0.4104ZM115.749 36.8871L77.0379 56.4137C76.8588 58.8712 76.6487 64.9393 76.5103 70.8152L99.0627 79.7821L118.597 64.5647L120.161 66.1184C120.371 66.3285 125.317 71.3217 124.851 77.3767C124.591 80.7511 122.778 83.6874 119.464 86.1075L59.5846 129.406C59.0911 129.712 50.5053 135.149 48.1878 143.099C54.6207 154.493 64.7259 167.344 78.2822 181.258C78.9629 181.959 79.6404 182.643 80.3228 183.327C87.0781 186.812 94.4734 186.95 103.082 183.882C113.41 180.206 143.086 157.69 143.386 157.462L145.361 155.96L148.391 159.877L146.417 161.38C145.171 162.325 115.816 184.595 104.764 188.528C100.191 190.157 95.8349 190.974 91.6869 190.974C90.4178 190.975 89.1498 190.895 87.8907 190.735C96.0114 198.448 104.442 205.828 113.161 212.858C119.194 207.988 133.323 196.181 147.443 181.464C164.414 163.777 175.928 147.62 181.548 133.807C180.105 129.178 176.43 124.913 171.523 122.464C167.795 120.602 160.178 118.295 151.073 123.736L109.955 152.099C105.618 154.849 99.2875 158.867 92.3954 158.867C86.6465 158.869 80.5084 156.076 74.8052 147.431L73.5479 145.524L75.3605 144.129C75.6748 143.888 106.873 119.912 133.3 101.786C134.023 101.287 134.86 100.655 135.722 100.006C137.129 98.9471 138.585 97.8495 139.837 97.0971C145.357 93.7911 149.218 87.4803 150.171 80.2202C151.278 71.7663 148.371 63.4899 141.985 56.9039C129.462 46.1912 119.137 39.1313 115.749 36.8888V36.8871ZM113.262 13.4031C85.8941 36.4425 50.0655 40.2339 36.6591 40.825L39.9456 118.856C40.198 124.374 42.009 130.61 45.2547 137.432C48.235 131.888 53.181 127.558 56.8762 125.263L116.521 82.1256C118.637 80.5833 119.741 78.9027 119.886 77.0021C120.052 74.8345 118.961 72.719 117.997 71.3103L99.8803 85.4251L85.9983 79.9059L86.0505 80.0296L83.746 80.9661C76.8051 83.7916 72.9079 85.829 73.5658 94.8692L73.745 97.3299L68.7811 97.6882L68.6003 95.2258C68.3919 92.3758 68.6264 90.0177 69.1524 88.0113L60.433 87.8973L60.4982 82.9611L71.4715 83.1027C73.6065 80.2755 76.621 78.6372 79.5753 77.3539L71.4585 74.1244L71.4943 72.4193C71.5985 67.5173 71.8851 55.9349 72.3086 54.2217L72.5822 53.124L116.049 31.1985L117.249 31.9575C117.751 32.275 129.724 39.8886 145.326 53.2413L145.487 53.3927C153.001 61.0942 156.416 70.8477 155.105 80.8553C153.962 89.5926 149.218 97.2453 142.415 101.32C141.388 101.936 140.038 102.952 138.735 103.937C137.811 104.632 136.911 105.308 136.134 105.842C113.529 121.348 87.4005 141.166 80.2837 146.597C88.9298 158.168 97.2811 154.284 107.193 147.992L148.368 119.599C156.646 114.64 165.852 114.111 173.76 118.055C177.975 120.158 181.486 123.374 183.866 127.107C184.771 123.866 185.323 120.772 185.475 117.856L189.619 40.7322C176.713 39.9179 142.702 35.6429 113.262 13.4031V13.4031ZM99.5627 53.7429L94.9701 66.7714L78.3913 62.8645L99.5627 53.7429Z"/>
</svg>
