<svg width="20" height="20" viewBox="0 0 20 20" fill="none" xmlns="http://www.w3.org/2000/svg">
<g clip-path="url(#clip0_220_64)">
<path d="M19.1949 7.88846C18.1882 7.77451 17.0644 7.70242 15.8192 7.67219C15.2504 7.66056 14.6886 7.58149 14.1336 7.43963C14.0579 7.42102 14.0052 7.37684 13.9708 7.30707C13.8171 6.98846 13.7047 6.68846 13.6336 6.40707C13.2048 4.72567 12.6888 2.96986 12.0857 1.13963C11.9549 0.748929 11.7485 0.41637 11.4642 0.139626C11.2302 -0.0836296 10.8541 -0.0347925 10.6844 0.241952C9.72354 1.81404 8.61587 3.30707 7.35684 4.72102C7.19172 4.90707 7.00596 5.06288 6.73994 4.95591C5.39835 4.4187 4.06823 3.89777 2.74957 3.39311C2.02947 3.1187 0.401215 2.37684 0.0457514 3.45358C-0.0895542 3.86753 0.105378 4.09777 0.316363 4.4373C1.48366 6.33497 2.65784 7.99079 3.83889 9.40242C4.1806 9.81405 4.21729 10.2489 3.94668 10.7094C2.78168 12.6931 1.71987 14.8303 0.761266 17.1233C0.66724 17.3466 0.772732 17.6024 0.992891 17.6931C1.16948 17.7652 1.40798 17.7536 1.7107 17.6536C4.14849 16.8606 6.6161 16.1722 9.11352 15.5885C9.27634 15.5513 9.43917 15.5326 9.60429 15.5303C9.68226 15.5303 9.74647 15.5606 9.79693 15.6187C10.9872 17.0187 12.182 18.514 13.5947 19.6861C13.7621 19.8233 13.9524 19.9257 14.168 19.9885C14.2437 20.0094 14.3148 20.0001 14.3813 19.9606C14.7734 19.721 14.989 19.3443 15.0257 18.835C15.177 16.6675 15.2 14.635 15.0968 12.7396C15.0761 12.3954 15.2183 12.142 15.5187 11.9815C16.92 11.228 18.4817 10.3838 19.7018 9.32567C20.3232 8.78381 19.8852 7.96753 19.1949 7.88846ZM10.2762 3.48846C10.4024 3.13032 10.5835 2.81404 10.822 2.5373C10.9092 2.4373 10.9528 2.45358 10.9505 2.58614C10.9459 3.0373 11.0307 3.45823 11.205 3.87916C11.6064 4.84428 12.0352 5.92102 12.4916 7.10707C12.5489 7.25358 12.5168 7.27684 12.3975 7.17684C12.2714 7.06986 12.159 6.94893 12.0604 6.81172C11.3839 5.87451 10.7922 4.83963 10.2877 3.71172C10.2533 3.63963 10.251 3.56521 10.2762 3.48846ZM3.99025 7.49544L3.97649 7.50474C3.95815 7.51637 3.93521 7.50939 3.92604 7.49312L2.05699 4.53032C2.04552 4.51404 2.05011 4.49079 2.06846 4.47916L2.08222 4.46986C2.19459 4.39544 2.7037 4.99777 3.2197 5.81172L3.26557 5.88614C3.77927 6.70009 4.10263 7.42102 3.99025 7.49544ZM2.86882 15.8047C2.84818 15.6117 2.88029 15.4327 2.96514 15.2699C3.40316 14.4117 3.8022 13.6303 4.36636 12.7838C4.97867 11.8559 5.53595 10.8722 6.0336 9.828C6.11157 9.66521 6.09093 9.51637 5.97168 9.38381C5.2791 8.59544 4.63238 7.73032 4.02924 6.78846C3.77698 6.39311 3.67836 5.89544 3.49948 5.46986C3.26786 4.92567 3.34813 4.87218 3.74487 5.30707C4.74017 6.40242 5.62309 7.59777 6.39594 8.89312C6.43493 8.96056 6.49914 9.00939 6.57253 9.03265L6.92799 9.14195C7.03578 9.17451 7.09082 9.29544 7.04724 9.40009C6.46245 10.8024 5.76757 12.0513 4.96033 13.1466C4.31361 14.021 3.7357 14.9722 2.98119 15.8396C2.91698 15.914 2.88029 15.9024 2.86882 15.8047ZM6.69407 15.2094C6.59775 15.2513 6.49455 15.1582 6.52666 15.0559C6.86836 13.9396 7.43252 13.121 7.91641 12.1001C8.0563 11.8071 8.24894 11.5513 8.49432 11.3326C8.83832 11.028 9.90013 9.73032 9.28552 9.28846L9.31533 9.38381C9.33368 9.44428 9.33597 9.50939 9.31762 9.56986C9.11352 10.2629 8.7764 10.8582 8.31086 11.3582C8.18014 11.5001 8.13886 11.4768 8.18931 11.2885C8.33608 10.7373 8.6411 10.2908 8.70302 9.66521C8.71219 9.56521 8.67091 9.53498 8.58147 9.57451C8.42323 9.64195 8.31774 9.74195 8.26729 9.87684C7.46692 11.9861 6.33631 13.8466 4.87547 15.4606C4.76769 15.5792 4.61404 15.6675 4.41222 15.721C4.32737 15.7443 4.29985 15.714 4.33196 15.6303C4.42828 15.3861 4.54065 15.1489 4.66678 14.9233C5.60245 13.2606 6.84543 11.714 7.43252 9.80707C7.59076 9.28614 7.33391 9.26056 7.12292 8.90939C6.52895 7.91172 5.79051 6.8373 4.90758 5.68381C4.84107 5.60009 4.85942 5.57684 4.95803 5.61172C5.61392 5.85125 6.14368 6.12567 6.5473 6.43265C7.34308 7.03963 7.65038 8.00474 8.45075 8.59312C8.65027 8.73963 8.80851 8.93265 8.92776 9.16986C8.96216 9.24195 9.01949 9.28381 9.09747 9.29544C9.15938 9.30474 9.22131 9.30242 9.28552 9.28846C8.94152 8.23265 8.42094 7.29777 7.72148 6.48614C7.67332 6.428 7.6779 6.37916 7.73982 6.3373L8.49203 5.82102C8.55624 5.77684 8.6067 5.78846 8.64339 5.85591C9.2236 6.91172 9.91159 8.00009 10.712 9.1187C10.7647 9.19079 10.767 9.26521 10.7188 9.34195C9.5653 11.214 8.39113 13.0257 7.20089 14.7815C7.07018 14.9768 6.90047 15.1187 6.69407 15.2094ZM9.56989 13.9861C9.31992 13.8931 9.12728 13.7606 8.98739 13.5885C8.92547 13.5117 8.90253 13.521 8.92317 13.6187C8.95757 13.8071 8.93005 13.9675 8.83603 14.1024C8.78099 14.1815 8.66403 14.1838 8.60899 14.1047C8.48056 13.9303 8.58376 13.7047 8.68238 13.5466C8.71448 13.4954 8.75805 13.4652 8.8108 13.4582C8.8796 13.4513 8.93235 13.4164 8.96675 13.3536C9.51485 12.3559 10.0446 11.3768 10.556 10.4164C10.9207 9.728 11.1179 9.23265 11.1431 8.93265C11.1775 8.52567 10.7991 8.26521 10.6455 8.00474C10.0928 7.08614 9.5653 6.2187 9.06307 5.40474C8.94381 5.21172 8.95528 5.028 9.09747 4.85358L9.42312 4.4466C9.57218 4.26288 9.70519 4.27451 9.82674 4.47684C10.5124 5.62102 11.1775 6.72335 11.8265 7.78614C11.9595 8.00242 12.159 8.1373 12.3356 8.31172C12.487 8.46056 12.526 8.69544 12.4274 8.88614C11.9825 9.7466 11.6362 10.635 11.1293 11.4675C10.6546 12.2513 10.2235 13.0536 9.8405 13.8745C9.79234 13.9792 9.67538 14.0257 9.56989 13.9861ZM10.8266 14.5768C10.462 14.1861 10.7853 13.2373 11.017 12.8396C11.7669 11.5513 12.4251 10.2396 12.9961 8.90474C13.1039 8.65125 13.2919 8.5466 13.5603 8.58614L13.9203 8.63963C14.2437 8.68846 14.3171 8.85125 14.1428 9.128C13.5763 10.0327 13.0167 10.921 12.4641 11.7931C11.9068 12.6722 11.5009 13.6047 11.0514 14.542C10.994 14.6652 10.9184 14.6768 10.8266 14.5768ZM13.8997 16.6722C13.8561 17.2373 13.7804 17.6908 13.7277 17.6885C13.6772 17.6838 13.668 17.2233 13.7116 16.6582C13.7552 16.0931 13.8309 15.6396 13.8836 15.642C13.9341 15.6466 13.9432 16.1071 13.8997 16.6722ZM12.7691 16.8792C12.7645 16.9001 12.7438 16.9094 12.7232 16.9047H12.7186C12.4824 16.8233 12.4342 16.321 12.6108 15.7792L13.2552 13.7908C13.4295 13.2489 13.7644 12.8745 14.0006 12.9536H14.0052C14.0235 12.9606 14.035 12.9815 14.0281 13.0001L12.7691 16.8792ZM15.8994 8.99079C15.3376 10.0606 14.778 10.6745 13.9753 11.4931C13.7391 11.7326 13.4089 12.328 12.9846 13.2768C12.6521 14.0164 12.6819 14.928 12.5191 15.7699C12.4985 15.8768 12.4526 15.9606 12.3815 16.0233C12.3058 16.0885 12.2737 16.0722 12.2852 15.9722L12.4824 14.1629C12.487 14.121 12.4709 14.0792 12.4411 14.0489C12.3517 13.9652 12.2783 13.9885 12.2233 14.1187C12.0008 14.6536 11.854 15.1931 11.7852 15.7396C11.7692 15.8722 11.7256 15.8815 11.6545 15.7675L11.549 15.5978C11.4848 15.4908 11.4573 15.3652 11.4733 15.242C11.549 14.6164 11.7967 14.1396 12.2164 13.8164C12.2783 13.7699 12.3242 13.7117 12.354 13.6396C12.5627 13.1443 12.6682 12.5978 12.9158 12.1489C13.5442 11.0164 14.2001 9.9373 14.8835 8.91172C14.9684 8.78614 15.0853 8.728 15.2344 8.73963L15.7848 8.78149C15.888 8.78846 15.9476 8.90009 15.8994 8.99079ZM17.0897 9.35358C16.936 9.67219 16.6769 9.90707 16.3099 10.0582C16.1701 10.1164 16.1448 10.0815 16.232 9.95823C16.4361 9.66521 16.5645 9.35823 16.6218 9.03963C16.6494 8.89311 16.7319 8.84893 16.8672 8.90707L16.9337 8.93498C17.0943 9.00242 17.1653 9.19312 17.0897 9.35358Z" fill="black"/>
</g>
<defs>
<clipPath id="clip0_220_64">
<rect width="20" height="20" fill="white"/>
</clipPath>
</defs>
</svg>
