<svg xmlns="http://www.w3.org/2000/svg" version="1.1" xmlns:xlink="http://www.w3.org/1999/xlink" xmlns:svgjs="http://svgjs.com/svgjs" width="1000" height="1000"><rect width="1000" height="1000" rx="150" ry="150" fill="#0e0b0b"></rect><g transform="matrix(29.166666666666668,0,0,29.166666666666668,150,150)"><svg xmlns="http://www.w3.org/2000/svg" version="1.1" xmlns:xlink="http://www.w3.org/1999/xlink" xmlns:svgjs="http://svgjs.com/svgjs" width="24" height="24"><svg width="24.000000" height="24.000000" viewBox="0 0 24 24" fill="none" xmlns="http://www.w3.org/2000/svg" xmlns:xlink="http://www.w3.org/1999/xlink">
	<desc>
			Created with Pixso.
	</desc>
	<defs>
		<clipPath id="clip205_68">
			<rect id="git" width="24.000000" height="24.000000" fill="white" fill-opacity="0"></rect>
		</clipPath>
	</defs>
	<rect id="git" width="24.000000" height="24.000000" fill="#FFFFFF" fill-opacity="0"></rect>
	<g clip-path="url(#clip205_68)">
		<path id="Vector" d="M18.28 4.39C17.81 3.9 17.23 3.66 16.56 3.66C15.88 3.66 15.31 3.9 14.83 4.39C14.36 4.88 14.12 5.47 14.12 6.16C14.12 6.61 14.23 7.03 14.45 7.42C14.67 7.8 14.97 8.11 15.34 8.32C15.34 8.77 15.3 9.17 15.23 9.51C15.16 9.86 15.04 10.16 14.88 10.42C14.71 10.68 14.54 10.9 14.36 11.08C14.18 11.27 13.93 11.44 13.61 11.6C13.29 11.76 12.99 11.89 12.72 12C12.44 12.11 12.07 12.24 11.61 12.39C10.76 12.65 10.11 12.9 9.65 13.13L9.65 6.66C10.02 6.44 10.32 6.14 10.54 5.75C10.76 5.37 10.87 4.95 10.87 4.49C10.87 3.8 10.63 3.21 10.16 2.72C9.69 2.24 9.11 2 8.43 2C7.76 2 7.18 2.24 6.71 2.72C6.23 3.21 6 3.8 6 4.49C6 4.95 6.11 5.37 6.32 5.75C6.55 6.14 6.84 6.44 7.21 6.66L7.21 17.33C6.84 17.55 6.55 17.85 6.32 18.24C6.11 18.62 6 19.04 6 19.5C6 20.19 6.23 20.78 6.71 21.27C7.18 21.75 7.76 22 8.43 22C9.11 22 9.69 21.75 10.16 21.27C10.63 20.78 10.87 20.19 10.87 19.5C10.87 19.04 10.76 18.62 10.54 18.24C10.32 17.85 10.02 17.55 9.65 17.33L9.65 17C9.65 16.4 9.83 15.96 10.18 15.69C10.53 15.42 11.25 15.12 12.33 14.77C13.47 14.4 14.33 14.04 14.91 13.71C16.8 12.61 17.76 10.81 17.78 8.32C18.15 8.11 18.44 7.8 18.66 7.42C18.88 7.03 19 6.61 19 6.16C19 5.47 18.76 4.88 18.28 4.39ZM9.3 20.38C9.06 20.62 8.77 20.75 8.43 20.75C8.09 20.75 7.81 20.62 7.57 20.38C7.33 20.14 7.21 19.84 7.21 19.5C7.21 19.15 7.33 18.85 7.57 18.61C7.81 18.37 8.09 18.25 8.43 18.25C8.77 18.25 9.06 18.37 9.3 18.61C9.53 18.85 9.65 19.15 9.65 19.5C9.65 19.84 9.53 20.14 9.3 20.38ZM9.3 5.38C9.06 5.62 8.77 5.75 8.43 5.75C8.09 5.75 7.81 5.62 7.57 5.38C7.33 5.14 7.21 4.84 7.21 4.5C7.21 4.15 7.33 3.85 7.57 3.61C7.81 3.37 8.09 3.25 8.43 3.25C8.77 3.25 9.06 3.37 9.3 3.61C9.53 3.85 9.65 4.15 9.65 4.5C9.65 4.84 9.53 5.14 9.3 5.38ZM17.42 7.05C17.18 7.29 16.9 7.41 16.56 7.41C16.22 7.41 15.93 7.29 15.69 7.05C15.46 6.8 15.34 6.51 15.34 6.16C15.34 5.81 15.46 5.52 15.69 5.28C15.93 5.03 16.22 4.91 16.56 4.91C16.9 4.91 17.18 5.03 17.42 5.28C17.66 5.52 17.78 5.81 17.78 6.16C17.78 6.51 17.66 6.8 17.42 7.05Z" fill="#FFFFFF" fill-opacity="0.800000" fill-rule="nonzero"></path>
	</g>
</svg></svg></g></svg>