<svg width="56" height="56" viewBox="0 0 56 56" fill="none" xmlns="http://www.w3.org/2000/svg">
<path d="M12.4444 12.4445H43.5556V43.5556H12.4444V12.4445Z" fill="#CF4547"/>
<path d="M23.2091 28.2072C23.1945 28.2285 23.1689 28.295 23.1311 28.4077C23.0933 28.5204 23.0476 28.6612 22.994 28.8306C22.9404 29 22.8819 29.1901 22.8197 29.3998C22.7569 29.6094 22.6923 29.8239 22.6265 30.042C22.5601 30.2608 22.4967 30.4747 22.4358 30.6849C22.3749 30.8946 22.32 31.0847 22.2719 31.2541C22.2237 31.4235 22.1835 31.5655 22.1512 31.6807C22.1189 31.7952 22.0994 31.8629 22.0921 31.8842C22.0744 31.9518 22.0458 32.0274 22.0062 32.1103C21.9666 32.1931 21.9203 32.2711 21.8666 32.3455C21.813 32.4198 21.7539 32.4814 21.6893 32.5301C21.6247 32.5789 21.5583 32.6033 21.4906 32.6033C21.3761 32.6033 21.2926 32.5649 21.2408 32.4887C21.189 32.4125 21.1628 32.2724 21.1628 32.0688V31.9799C21.1628 31.95 21.1646 31.9183 21.1683 31.8848C21.1719 31.8172 21.1988 31.6898 21.2487 31.5027C21.2987 31.3162 21.359 31.1054 21.4285 30.8696C21.498 30.6337 21.5735 30.3906 21.654 30.1377C21.7344 29.8854 21.8069 29.6594 21.8715 29.4601C21.6814 29.6722 21.476 29.883 21.2536 30.0932C21.0318 30.3035 20.8039 30.4918 20.5717 30.6593C20.3389 30.8269 20.1043 30.964 19.8679 31.0695C19.6314 31.1755 19.4041 31.2285 19.186 31.2285C18.9355 31.2285 18.7198 31.173 18.5388 31.0634C18.3578 30.9531 18.2085 30.8086 18.0903 30.6307C17.9721 30.4528 17.8844 30.2511 17.8271 30.0262C17.7698 29.8013 17.7411 29.5765 17.7411 29.3516V29.2687C17.7411 29.2431 17.743 29.2182 17.7466 29.1926C17.768 28.7855 17.8265 28.3675 17.9209 27.9391C18.016 27.5107 18.1403 27.0841 18.2945 26.6606C18.4486 26.2365 18.6266 25.8221 18.8289 25.4169C19.0312 25.0116 19.2512 24.6289 19.4895 24.2688C19.7277 23.9087 19.9806 23.5766 20.2493 23.2731C20.5181 22.9696 20.7935 22.7088 21.0763 22.4906C21.359 22.2725 21.6448 22.1019 21.9331 21.9788C22.2213 21.8557 22.5071 21.7941 22.7898 21.7941C23.1159 21.7941 23.4309 21.8831 23.735 22.061C24.0391 22.239 24.3236 22.5278 24.5887 22.9263C24.6497 23.0153 24.688 23.1055 24.7039 23.1969C24.7197 23.2883 24.7283 23.3742 24.7283 23.4547C24.7283 23.6454 24.6826 23.7959 24.5912 23.9062C24.4997 24.0165 24.3913 24.0714 24.2664 24.0714C24.1518 24.0714 24.0452 24.011 23.947 23.8898C23.8483 23.7691 23.7386 23.5961 23.6168 23.3712C23.5022 23.1677 23.3761 23.0202 23.2383 22.9288C23.1006 22.8374 22.9507 22.7923 22.7898 22.7923C22.5394 22.7923 22.2713 22.8965 21.9867 23.1043C21.7021 23.3121 21.42 23.5869 21.1409 23.9282C20.8618 24.2694 20.5936 24.6594 20.3377 25.0988C20.0818 25.5375 19.8551 25.9872 19.6582 26.4473C19.4614 26.9074 19.3048 27.3614 19.1884 27.8087C19.072 28.256 19.0141 28.6581 19.0141 29.0146C19.0141 29.1335 19.0221 29.2553 19.0385 29.3803C19.055 29.5052 19.0848 29.6191 19.1299 29.7209C19.1744 29.8227 19.2353 29.9068 19.3127 29.972C19.3895 30.0378 19.487 30.0707 19.6052 30.0707C19.7375 30.0707 19.888 30.0262 20.0562 29.9372C20.2244 29.8483 20.3993 29.7319 20.5796 29.5874C20.7606 29.443 20.9422 29.2797 21.125 29.0975C21.3078 28.9153 21.4778 28.7307 21.6351 28.5442C21.7923 28.3577 21.9324 28.1786 22.0537 28.0067C22.1756 27.8349 22.267 27.6856 22.3273 27.5582L22.827 26.0634C22.8879 25.9025 22.9678 25.788 23.0659 25.7197C23.1646 25.6521 23.2658 25.618 23.3694 25.618C23.4193 25.618 23.4693 25.6265 23.5199 25.6436C23.5698 25.6606 23.6149 25.6868 23.6539 25.7234C23.6935 25.7593 23.7246 25.8063 23.7478 25.8635C23.7709 25.9208 23.7825 25.9879 23.7825 26.064C23.7825 26.2676 23.7648 26.4583 23.7289 26.6368C23.6929 26.8154 23.6472 26.9891 23.5918 27.1585C23.5363 27.3279 23.4748 27.4991 23.4065 27.6703C23.3395 27.841 23.2731 28.0201 23.2091 28.2072ZM29.9817 29.454C29.8239 29.6661 29.6405 29.8726 29.4314 30.0743C29.2218 30.276 29.0061 30.4552 28.7843 30.6118C28.5625 30.7684 28.3437 30.8946 28.1292 30.9902C27.9141 31.0859 27.7209 31.1334 27.5491 31.1334C27.3772 31.1334 27.2377 31.0762 27.1298 30.9616C27.0226 30.847 26.9689 30.652 26.9689 30.376C26.9689 30.181 26.9976 29.9537 27.0549 29.6953C26.9616 29.8611 26.8452 30.0286 26.7057 30.198C26.5661 30.3674 26.4065 30.5222 26.2273 30.6624C26.0482 30.8025 25.8477 30.9159 25.6259 31.0024C25.4041 31.0896 25.1621 31.1328 24.9007 31.1328C24.7825 31.1328 24.6685 31.1182 24.5595 31.0883C24.4504 31.0585 24.3547 31.0079 24.2725 30.936C24.1902 30.8641 24.1238 30.7678 24.0738 30.6465C24.0238 30.5259 23.9988 30.3742 23.9988 30.1919C23.9988 30.1877 24.0062 30.1231 24.0202 29.9982C24.0342 29.8732 24.0799 29.6758 24.1573 29.4065C24.2341 29.1371 24.3535 28.7886 24.5144 28.3602C24.6759 27.9318 24.9032 27.4126 25.1963 26.8014C25.2712 26.6405 25.3584 26.5247 25.4565 26.4546C25.5552 26.3846 25.6612 26.3498 25.7758 26.3498C25.8258 26.3498 25.8775 26.3571 25.9318 26.3718C25.9854 26.387 26.0354 26.4102 26.0823 26.4418C26.1286 26.4735 26.1664 26.5138 26.195 26.5625C26.2237 26.6113 26.2383 26.6673 26.2383 26.7313C26.2383 26.774 26.2328 26.8142 26.2218 26.852C26.2042 26.9245 26.1658 27.0183 26.1061 27.1353C26.047 27.2523 25.9781 27.3858 25.8995 27.5363C25.8209 27.6868 25.7374 27.8489 25.6496 28.0232C25.5619 28.1968 25.4802 28.3772 25.4053 28.5637C25.3303 28.7502 25.2657 28.9403 25.2121 29.1329C25.1585 29.326 25.128 29.5137 25.1207 29.6959C25.1207 29.7721 25.1384 29.8422 25.1743 29.9062C25.2103 29.9695 25.2694 30.0018 25.3517 30.0018C25.5844 30.0018 25.8063 29.9257 26.0177 29.7727C26.2292 29.6204 26.4242 29.4302 26.6033 29.2035C26.7825 28.9769 26.9446 28.7331 27.0896 28.4717C27.2346 28.2109 27.3559 27.9726 27.4522 27.7563C27.5204 27.6118 27.5801 27.4571 27.6319 27.2919C27.6837 27.1268 27.7404 26.9738 27.8014 26.8337C27.8623 26.6935 27.9318 26.5771 28.011 26.4839C28.0896 26.3907 28.1883 26.3437 28.3065 26.3437C28.4351 26.3437 28.5375 26.3925 28.6124 26.49C28.6874 26.5875 28.7252 26.7045 28.7252 26.8398C28.7252 26.9159 28.7014 27.0214 28.6527 27.1548C28.6039 27.2883 28.5436 27.4412 28.4698 27.6131C28.3967 27.7849 28.3169 27.9683 28.231 28.1633C28.145 28.3583 28.0652 28.557 27.9921 28.7581C27.9184 28.9598 27.858 29.1566 27.8093 29.3498C27.7611 29.543 27.7368 29.7221 27.7368 29.8873C27.7368 30.0402 27.8154 30.1164 27.9732 30.1164C28.0841 30.1164 28.2218 30.078 28.387 30.0018C28.5521 29.9257 28.7246 29.8184 28.9055 29.6807C29.0865 29.543 29.2669 29.3809 29.4479 29.1938C29.6289 29.0073 29.7891 28.8056 29.9287 28.5893L29.9817 29.454Z" fill="#1E2235" stroke="#1E2235" stroke-width="0.264085" stroke-miterlimit="10"/>
<path d="M30.1487 29.1359C30.1091 29.2334 30.0707 29.3467 30.0329 29.4765C29.9951 29.6057 29.9768 29.7215 29.9768 29.8233C29.9768 29.8867 29.9878 29.9378 30.0091 29.9762C30.0304 30.0146 30.0719 30.0335 30.1328 30.0335C30.2078 30.0335 30.3016 30.0073 30.415 29.9537C30.5277 29.9007 30.6496 29.8306 30.78 29.7434C30.911 29.6569 31.0469 29.557 31.1883 29.4442C31.3296 29.3321 31.4704 29.2151 31.61 29.0945C31.7495 28.9732 31.883 28.8525 32.0103 28.7319C32.1377 28.6106 32.251 28.4997 32.3516 28.3979C32.3802 28.3681 32.4143 28.3468 32.4533 28.3346C32.4923 28.3218 32.5265 28.3157 32.5551 28.3157C32.6264 28.3157 32.6861 28.3455 32.7324 28.4046C32.7787 28.4638 32.8019 28.5424 32.8019 28.6399C32.8019 28.7288 32.7769 28.8288 32.7269 28.9391C32.677 29.0494 32.5892 29.1578 32.4637 29.2633C32.2346 29.5137 32.0036 29.7508 31.7708 29.9756C31.538 30.2005 31.3065 30.3985 31.0755 30.5704C30.8446 30.7422 30.6154 30.8787 30.3882 30.9811C30.1609 31.0829 29.9396 31.1334 29.7245 31.1334C29.5777 31.1334 29.4552 31.1103 29.3565 31.0634C29.2578 31.0164 29.1791 30.9531 29.12 30.8726C29.0609 30.7922 29.0189 30.6965 28.9939 30.5862C28.9689 30.4759 28.9561 30.3595 28.9561 30.2364C28.9561 30.0286 28.9823 29.8154 29.0341 29.5972C29.0859 29.379 29.1475 29.1786 29.2194 28.9964C29.3449 28.6655 29.4716 28.337 29.6008 28.0104C29.7294 27.6838 29.8476 27.3846 29.9555 27.1134L31.5825 23.0098C31.6471 22.8447 31.7337 22.7277 31.8433 22.6601C31.9524 22.5924 32.0627 22.5583 32.1736 22.5583C32.2845 22.5583 32.3857 22.5942 32.4771 22.6661C32.5685 22.7381 32.6142 22.8551 32.6142 23.0159C32.6142 23.0921 32.599 23.1731 32.5685 23.2579C32.538 23.3426 32.4996 23.434 32.4533 23.5315C32.3637 23.7307 32.2571 23.9745 32.134 24.2627C32.0103 24.551 31.8781 24.8648 31.7367 25.2042C31.5953 25.5436 31.4503 25.8965 31.3016 26.2633C31.1529 26.6301 31.0079 26.9872 30.8665 27.3352C30.7251 27.6831 30.5929 28.0128 30.4692 28.3242C30.3443 28.6362 30.2376 28.9068 30.1487 29.1359Z" fill="#1E2235" stroke="#1E2235" stroke-width="0.264085" stroke-miterlimit="10"/>
<path d="M37.7592 27.9842C37.8091 27.95 37.8561 27.9226 37.8987 27.9013C37.9414 27.88 37.9828 27.8696 38.0224 27.8696C38.101 27.8696 38.1601 27.905 38.1997 27.9744C38.2393 28.0445 38.2588 28.1304 38.2588 28.2322C38.2588 28.3425 38.2351 28.4546 38.1863 28.5692C38.1382 28.6837 38.0657 28.7788 37.9688 28.8556C37.5855 29.195 37.2436 29.5046 36.9432 29.7843C36.6422 30.064 36.3588 30.3047 36.0919 30.5064C35.825 30.7081 35.5648 30.8635 35.3107 30.9738C35.0566 31.0841 34.7842 31.1389 34.4941 31.1389C34.2217 31.1389 34.0115 31.0792 33.8628 30.961C33.7141 30.8421 33.6398 30.6788 33.6398 30.471V30.4235C33.6398 30.4089 33.6416 30.3906 33.6453 30.3693C33.6593 30.2419 33.7153 30.0957 33.8116 29.9305C33.9085 29.7654 34.0249 29.5935 34.1608 29.415C34.2967 29.2364 34.4417 29.0567 34.5959 28.8745C34.7501 28.6923 34.892 28.5192 35.0231 28.3559C35.1535 28.1926 35.2619 28.0433 35.3479 27.9074C35.4338 27.7715 35.477 27.6618 35.477 27.5765C35.477 27.5253 35.4588 27.4851 35.4234 27.4558C35.3875 27.426 35.3284 27.4114 35.2461 27.4114C35.1029 27.4114 34.9554 27.4485 34.8031 27.5229C34.6507 27.5972 34.5002 27.6965 34.3521 27.8215C34.2034 27.9464 34.0584 28.0896 33.917 28.2511C33.7757 28.4126 33.6434 28.5795 33.5197 28.7538C33.396 28.9281 33.2833 29.1024 33.1815 29.2785C33.0798 29.4546 32.9926 29.6167 32.9213 29.7654C32.9 29.8123 32.8695 29.8781 32.8299 29.9628C32.7903 30.0475 32.7476 30.1432 32.7013 30.2492C32.6544 30.3553 32.6057 30.4643 32.5533 30.5765C32.5015 30.6892 32.4539 30.7952 32.4113 30.8946C32.368 30.9945 32.3296 31.0829 32.2955 31.1621C32.2614 31.2407 32.237 31.2943 32.223 31.3242C32.2047 31.3626 32.1754 31.4345 32.134 31.5405C32.0926 31.6465 32.0456 31.7702 31.9914 31.9128C31.9378 32.0548 31.8811 32.2041 31.8226 32.3613C31.7635 32.5185 31.7081 32.6666 31.6563 32.8068C31.6045 32.9469 31.5588 33.0694 31.5191 33.1754C31.4795 33.2815 31.4546 33.3534 31.4436 33.3918C31.4076 33.5021 31.3656 33.6057 31.3174 33.7038C31.2693 33.8013 31.2138 33.8872 31.1511 33.9615C31.0883 34.0359 31.017 34.095 30.936 34.1395C30.8555 34.184 30.7647 34.2059 30.6648 34.2059C30.5356 34.2059 30.4296 34.1748 30.3449 34.1139C30.2608 34.0523 30.2187 33.9347 30.2187 33.7611C30.2187 33.6764 30.2297 33.5892 30.251 33.5002C30.2724 33.4113 30.2998 33.3229 30.3315 33.2364C30.3638 33.1492 30.3967 33.0645 30.4308 32.9823C30.4649 32.8994 30.496 32.8202 30.5246 32.7434C30.7178 32.3193 30.9153 31.8939 31.1157 31.468C31.3162 31.0414 31.5088 30.6197 31.6928 30.2017C31.8775 29.7843 32.0481 29.3735 32.2059 28.9708C32.3631 28.568 32.4941 28.1816 32.5977 27.8129C32.6264 27.7368 32.666 27.6283 32.716 27.4881C32.7659 27.348 32.8232 27.2103 32.8878 27.0744C32.9524 26.9385 33.0249 26.8209 33.1054 26.7215C33.1858 26.6216 33.2729 26.5722 33.3656 26.5722C33.5088 26.5722 33.6124 26.6052 33.6769 26.671C33.7415 26.7368 33.7738 26.8331 33.7738 26.9604C33.7738 26.986 33.7702 27.0262 33.7629 27.0811C33.7556 27.1359 33.7464 27.1944 33.7361 27.256C33.7251 27.3175 33.7135 27.376 33.7013 27.4309C33.6885 27.4857 33.6769 27.5259 33.6666 27.5515C33.7988 27.4071 33.942 27.2645 34.0962 27.1219C34.2504 26.9799 34.4094 26.8513 34.5746 26.7368C34.7391 26.6222 34.9073 26.529 35.0791 26.4565C35.251 26.3846 35.4228 26.3486 35.5947 26.3486C35.7129 26.3486 35.8299 26.3657 35.9463 26.3998C36.0627 26.4339 36.1662 26.4833 36.2577 26.5491C36.3491 26.6149 36.4234 26.6978 36.4807 26.7971C36.538 26.897 36.5666 27.0122 36.5666 27.1438C36.5666 27.3181 36.5227 27.5034 36.435 27.7008C36.3472 27.8982 36.2369 28.0963 36.1047 28.2956C35.9719 28.4948 35.8287 28.6892 35.6751 28.8775C35.5209 29.0664 35.3771 29.2383 35.2424 29.393C35.1084 29.5478 34.9956 29.6795 34.9042 29.7873C34.8128 29.8958 34.7653 29.9689 34.7616 30.0067C34.7616 30.0579 34.7781 30.0987 34.8098 30.131C34.8415 30.1633 34.8957 30.1785 34.9713 30.1785C35.0322 30.1785 35.1218 30.1444 35.24 30.0768C35.3582 30.0091 35.524 29.8915 35.7366 29.7239C35.9493 29.5564 36.2199 29.3315 36.5477 29.0494C36.8756 28.7678 37.2796 28.4126 37.7592 27.9842Z" fill="#1E2235" stroke="#1E2235" stroke-width="0.264085" stroke-miterlimit="10"/>
</svg>
