<svg width="24.000000" height="24.000000" viewBox="0 0 24 24" fill="none" xmlns="http://www.w3.org/2000/svg" xmlns:xlink="http://www.w3.org/1999/xlink">
	<desc>
			Created with Pixso.
	</desc>
	<defs>
		<clipPath id="clip205_94">
			<rect id="icon" width="24.000000" height="24.000000" fill="white" fill-opacity="0"/>
		</clipPath>
	</defs>
	<rect id="icon" width="24.000000" height="24.000000" fill="#FFFFFF" fill-opacity="0"/>
	<g clip-path="url(#clip205_94)">
		<path id="Vector" d="M6 2C4.89 2 4 2.9 4 4L4 20C4 21.1 4.89 22 5.99 22L18 22C19.1 22 20 21.1 20 20L20 8L14 2L6 2ZM13 9L13 3.5L18.5 9L13 9Z" fill="#FFFFFF" fill-opacity="0.800000" fill-rule="nonzero"/>
		<path id="JS" d="M13.82 18.14Q13.92 18.29 13.92 18.5Q13.92 18.67 13.85 18.8Q13.79 18.9 13.69 18.98Q13.45 19.15 13.03 19.15Q12.37 19.15 12.1 18.82Q11.91 18.59 11.91 18.21L10.73 18.21Q10.73 18.62 10.89 18.96Q10.95 19.07 11.02 19.17Q11.02 19.18 11.03 19.19Q11.31 19.6 11.84 19.83Q12.38 20.07 13.03 20.07Q13.98 20.07 14.54 19.65Q14.78 19.47 14.92 19.23Q15.1 18.91 15.1 18.5Q15.1 18.12 14.95 17.81Q14.84 17.58 14.64 17.39Q14.18 16.94 13.18 16.64Q12.64 16.48 12.36 16.29Q12.16 16.15 12.1 15.98Q12.08 15.9 12.08 15.82Q12.08 15.68 12.14 15.56Q12.2 15.44 12.32 15.34Q12.56 15.16 12.99 15.16Q13.43 15.16 13.68 15.38Q13.74 15.43 13.79 15.5Q13.92 15.7 13.92 15.99L15.1 15.99Q15.1 15.64 14.97 15.34Q14.92 15.2 14.83 15.07Q14.78 14.99 14.71 14.91Q14.47 14.62 14.09 14.45Q13.62 14.23 13.01 14.23Q12.4 14.23 11.91 14.43Q11.43 14.64 11.17 15Q11.06 15.14 11 15.31Q10.91 15.55 10.91 15.82Q10.91 16.09 11 16.32Q11.2 16.86 11.88 17.23Q12.23 17.42 12.84 17.62Q13.45 17.82 13.69 17.99Q13.77 18.06 13.82 18.14ZM9.97 14.31L8.8 14.31L8.8 18.25Q8.8 18.67 8.6 18.9Q8.52 18.98 8.44 19.04Q8.28 19.13 8.06 19.13Q7.7 19.13 7.52 18.95Q7.52 18.94 7.51 18.93Q7.33 18.73 7.33 18.32L6.15 18.32Q6.15 18.99 6.48 19.42Q6.56 19.52 6.66 19.61Q6.67 19.63 6.68 19.64Q7.18 20.07 8.06 20.07Q8.6 20.07 9.03 19.86Q9.04 19.85 9.05 19.85Q9.3 19.72 9.49 19.52Q9.63 19.38 9.73 19.2Q9.74 19.18 9.76 19.15Q9.97 18.75 9.97 18.25L9.97 14.31Z" fill="#000000" fill-opacity="0.800000" fill-rule="evenodd"/>
	</g>
</svg>
