<svg width="24.000000" height="24.000000" viewBox="0 0 24 24" fill="none" xmlns="http://www.w3.org/2000/svg" xmlns:xlink="http://www.w3.org/1999/xlink">
	<desc>
			Created with Pixso.
	</desc>
	<defs>
		<clipPath id="clip205_98">
			<rect id="icon" width="24.000000" height="24.000000" fill="white" fill-opacity="0"/>
		</clipPath>
	</defs>
	<rect id="icon" width="24.000000" height="24.000000" fill="#FFFFFF" fill-opacity="0"/>
	<g clip-path="url(#clip205_98)">
		<path id="Vector" d="M6 2C4.89 2 4 2.9 4 4L4 20C4 21.1 4.89 22 5.99 22L18 22C19.1 22 20 21.1 20 20L20 8L14 2L6 2ZM13 9L13 3.5L18.5 9L13 9Z" fill="#FFFFFF" fill-opacity="0.800000" fill-rule="nonzero"/>
		<path id="MD" d="M9.5 18.43L8.03 14.31L6.5 14.31L6.5 20L7.67 20L7.67 18.44L7.56 15.76L9.09 20L9.89 20L11.43 15.76L11.31 18.44L11.31 20L12.49 20L12.49 14.31L10.95 14.31L9.5 18.43ZM13.51 14.31L13.51 20L15.27 20Q15.89 19.99 16.4 19.76Q16.51 19.71 16.61 19.65Q16.87 19.5 17.08 19.3Q17.35 19.04 17.53 18.69Q17.86 18.08 17.86 17.28L17.86 17.02Q17.86 16.25 17.55 15.65Q17.54 15.63 17.53 15.61Q17.32 15.22 17.02 14.95Q16.83 14.78 16.6 14.65Q16.52 14.6 16.42 14.55Q15.9 14.31 15.26 14.31L13.51 14.31ZM14.68 19.05L14.68 15.26L15.26 15.26Q15.77 15.26 16.1 15.5Q16.22 15.59 16.31 15.7Q16.67 16.15 16.67 17.02L16.67 17.32Q16.66 18.16 16.3 18.6Q16.2 18.73 16.08 18.82Q15.75 19.05 15.25 19.05L14.68 19.05Z" fill="#000000" fill-opacity="0.800000" fill-rule="evenodd"/>
	</g>
</svg>
