<svg width="24.000000" height="24.000000" viewBox="0 0 24 24" fill="none" xmlns="http://www.w3.org/2000/svg" xmlns:xlink="http://www.w3.org/1999/xlink">
	<desc>
			Created with Pixso.
	</desc>
	<defs>
		<clipPath id="clip205_71">
			<rect id="settings" width="24.000000" height="24.000000" fill="white" fill-opacity="0"/>
		</clipPath>
	</defs>
	<rect id="settings" width="24.000000" height="24.000000" fill="#FFFFFF" fill-opacity="0"/>
	<g clip-path="url(#clip205_71)">
		<path id="Vector" d="M19.14 12.94C19.18 12.64 19.2 12.33 19.2 12C19.2 11.68 19.18 11.36 19.12 11.06L21.16 9.47C21.34 9.33 21.39 9.07 21.28 8.87L19.36 5.55C19.24 5.33 18.99 5.26 18.77 5.33L16.37 6.29C15.88 5.91 15.35 5.58 14.76 5.34L14.4 2.81C14.36 2.57 14.16 2.4 13.92 2.4L10.08 2.4C9.83 2.4 9.64 2.57 9.6 2.81L9.24 5.34C8.65 5.58 8.11 5.92 7.62 6.29L5.23 5.33C5.01 5.25 4.76 5.33 4.64 5.55L2.73 8.87C2.61 9.08 2.65 9.33 2.85 9.47L4.88 11.06C4.83 11.36 4.79 11.69 4.79 12C4.79 12.31 4.81 12.64 4.86 12.94L2.83 14.52C2.65 14.66 2.6 14.93 2.71 15.13L4.63 18.45C4.75 18.67 5 18.74 5.22 18.67L7.61 17.71C8.11 18.09 8.64 18.41 9.23 18.65L9.59 21.19C9.64 21.43 9.83 21.6 10.08 21.6L13.92 21.6C14.16 21.6 14.36 21.43 14.39 21.19L14.75 18.65C15.34 18.41 15.88 18.09 16.37 17.71L18.76 18.67C18.98 18.75 19.23 18.67 19.35 18.45L21.27 15.13C21.39 14.91 21.34 14.66 21.15 14.52L19.14 12.94ZM12 15.6C10.02 15.6 8.39 13.98 8.39 12C8.39 10.02 10.02 8.4 12 8.4C13.98 8.4 15.6 10.02 15.6 12C15.6 13.98 13.98 15.6 12 15.6Z" fill="#FFFFFF" fill-opacity="0.800000" fill-rule="nonzero"/>
	</g>
</svg>
